<svg id="Layer_1" data-name="Layer 1" xmlns="http://www.w3.org/2000/svg" viewBox="0 0 348.1 170.61"><defs><style>.cls-1{fill:#fff;}</style></defs><title>itc logos</title><rect class="cls-1" x="4.48" y="32.13" width="21.85" height="77.06"/><path class="cls-1" d="M42.64,87.33c0,17.83,9.06,23.15,22.43,23.15A32.23,32.23,0,0,0,82.32,106V88.48a22.17,22.17,0,0,1-10.78,2.73c-4.89,0-7.05-2.44-7.05-7.47V50.81H82.61V32.13H64.49V12.43H42.64v19.7h-9.2V50.81h9.2Z"/><path class="cls-1" d="M125.08,110.91c15.39,0,24-5.9,31.49-14.09l-12.8-12.94c-5.32,5-10.35,8.2-17.68,8.2-11.93,0-19.55-9.49-19.55-21.28v-.29c0-11.36,7.76-21,18.69-21,7.76,0,12.65,3.31,17.54,8.48l13.37-14.37c-7.19-8.05-16.25-12.94-30.77-12.94C101.79,30.69,85,48.8,85,70.8v.29C85,93.08,101.94,110.91,125.08,110.91Z"/><path class="cls-1" d="M184.68,99.25a11.23,11.23,0,1,0-11.23,11.23A11.23,11.23,0,0,0,184.68,99.25Z"/><path class="cls-1" d="M15.4,23.66A11.23,11.23,0,1,0,4.18,12.43,11.23,11.23,0,0,0,15.4,23.66Z"/><path class="cls-1" d="M7.9,156.79V144.45h4.8V141.7H7.9V137H4.64v4.68H1.69v2.75H4.64v12.66a5.47,5.47,0,0,0,1.41,4,5.53,5.53,0,0,0,4.13,1.45A8.26,8.26,0,0,0,13,162.1v-2.75a6.77,6.77,0,0,1-2.51.43C8.76,159.78,7.9,158.78,7.9,156.79Z"/><path class="cls-1" d="M25.59,141.34a9,9,0,0,0-6.94,2.95A10.85,10.85,0,0,0,16,151.88v.31a10.42,10.42,0,0,0,2.77,7.57,9.57,9.57,0,0,0,7.17,2.85A10.09,10.09,0,0,0,31.8,161a6.76,6.76,0,0,0,2.87-4.66H31.41q-.63,3.59-5.47,3.58A6.1,6.1,0,0,1,21.13,158a8.23,8.23,0,0,1-1.79-5.4H34.83v-1.06q0-5.16-2.65-7.69A9.18,9.18,0,0,0,25.59,141.34ZM19.46,150a7.59,7.59,0,0,1,2-4.34,5.59,5.59,0,0,1,4.09-1.59c3.65,0,5.61,2,5.9,5.93Z"/><rect class="cls-1" x="39.51" y="131.87" width="3.3" height="30.39"/><path class="cls-1" d="M57.2,141.34a9,9,0,0,0-6.94,2.95,10.81,10.81,0,0,0-2.69,7.59v.31a10.41,10.41,0,0,0,2.76,7.57,9.57,9.57,0,0,0,7.18,2.85A10.08,10.08,0,0,0,63.4,161a6.8,6.8,0,0,0,2.88-4.66H63q-.63,3.59-5.46,3.58A6.09,6.09,0,0,1,52.74,158a8.24,8.24,0,0,1-1.8-5.4H66.43v-1.06q0-5.16-2.65-7.69A9.16,9.16,0,0,0,57.2,141.34ZM51.06,150a7.59,7.59,0,0,1,2-4.34,5.6,5.6,0,0,1,4.1-1.59q5.46,0,5.89,5.93Z"/><path class="cls-1" d="M83.59,158.58a6.22,6.22,0,0,1-4,1.32,6.3,6.3,0,0,1-4.9-2,8.14,8.14,0,0,1-1.83-5.7v-.31a8.31,8.31,0,0,1,1.87-5.68,6,6,0,0,1,4.74-2.14q5,0,5.7,4.48h3.22a7.36,7.36,0,0,0-2.91-5.45,10.18,10.18,0,0,0-6-1.75,9.58,9.58,0,0,0-7.1,2.95,10.39,10.39,0,0,0-2.89,7.59v.31a10.23,10.23,0,0,0,2.85,7.57,9.77,9.77,0,0,0,7.22,2.85,9,9,0,0,0,6.15-2.18,8.15,8.15,0,0,0,2.81-5.56h-3A5.12,5.12,0,0,1,83.59,158.58Z"/><path class="cls-1" d="M101.62,141.34a9.66,9.66,0,0,0-7.25,2.95,10.38,10.38,0,0,0-2.85,7.55v.31a10.33,10.33,0,0,0,2.85,7.49,9.56,9.56,0,0,0,7.21,3,9.72,9.72,0,0,0,7.27-2.93,10.31,10.31,0,0,0,2.87-7.56v-.32a10.35,10.35,0,0,0-2.85-7.53A9.7,9.7,0,0,0,101.62,141.34Zm6.72,10.81a8.33,8.33,0,0,1-1.83,5.63,6.76,6.76,0,0,1-9.81,0,8.4,8.4,0,0,1-1.81-5.65v-.31a8.45,8.45,0,0,1,1.81-5.66,6.73,6.73,0,0,1,9.81,0,8.41,8.41,0,0,1,1.83,5.7Z"/><path class="cls-1" d="M138.84,141.34a9,9,0,0,0-4.06,1,6.46,6.46,0,0,0-3,2.87q-1.5-3.85-6-3.86a7.11,7.11,0,0,0-3.76,1,6,6,0,0,0-2.38,2.51V141.7H116.4v20.56h3.26V149.68a5.16,5.16,0,0,1,1.62-4.05,5.49,5.49,0,0,1,3.81-1.46c2.9,0,4.36,1.71,4.36,5.11v13h3.27V149.68a5.16,5.16,0,0,1,1.61-4.05,5.49,5.49,0,0,1,3.81-1.46c2.91,0,4.36,1.71,4.36,5.11v13h3.27V149.52c0-2.8-.65-4.87-2-6.19A6.7,6.7,0,0,0,138.84,141.34Z"/><path class="cls-1" d="M163.63,152a9,9,0,0,0-2.2-1,28.17,28.17,0,0,0-3-.69,11.27,11.27,0,0,1-3.79-1.18,2.34,2.34,0,0,1-1-2.09,2.59,2.59,0,0,1,1.06-2.14,4.55,4.55,0,0,1,2.83-.8,4.9,4.9,0,0,1,3,.76,3.91,3.91,0,0,1,1.37,2.46H165q-.74-5.94-7.43-5.94a8,8,0,0,0-4.81,1.56,5.51,5.51,0,0,0-.57,8.21q1.57,1.32,5.58,2.07a10.55,10.55,0,0,1,3.67,1.19,2.52,2.52,0,0,1,1.13,2.27c0,2.17-1.49,3.26-4.49,3.26s-4.57-1.33-4.83-4h-3.18a6.49,6.49,0,0,0,2.26,4.91,8.71,8.71,0,0,0,5.79,1.77,8.3,8.3,0,0,0,5.61-1.69,5.73,5.73,0,0,0,1.94-4.56,6.33,6.33,0,0,0-.49-2.65A4,4,0,0,0,163.63,152Z"/><path class="cls-1" d="M189,152a8.92,8.92,0,0,0-2.19-1,28.17,28.17,0,0,0-3-.69,11.35,11.35,0,0,1-3.8-1.18,2.33,2.33,0,0,1-1-2.09,2.56,2.56,0,0,1,1.06-2.14,4.55,4.55,0,0,1,2.83-.8,4.87,4.87,0,0,1,3,.76,3.91,3.91,0,0,1,1.37,2.46h3.15q-.75-5.94-7.43-5.94a8,8,0,0,0-4.81,1.56,5.5,5.5,0,0,0-.58,8.21c1.05.88,2.92,1.57,5.59,2.07a10.63,10.63,0,0,1,3.67,1.19,2.51,2.51,0,0,1,1.12,2.27q0,3.26-4.48,3.26c-3,0-4.57-1.33-4.83-4h-3.19a6.52,6.52,0,0,0,2.26,4.91,8.74,8.74,0,0,0,5.8,1.77,8.26,8.26,0,0,0,5.6-1.69,5.74,5.74,0,0,0,2-4.56,6.5,6.5,0,0,0-.49-2.65A4,4,0,0,0,189,152Z"/><path class="cls-1" d="M197.26,133.09a2.09,2.09,0,0,0-1.51.63,2.13,2.13,0,0,0,0,3.06,2.09,2.09,0,0,0,1.51.63,2.14,2.14,0,0,0,1.52-.63,2.15,2.15,0,0,0,0-3.06A2.14,2.14,0,0,0,197.26,133.09Z"/><rect class="cls-1" x="195.69" y="141.7" width="3.26" height="20.56"/><path class="cls-1" d="M227.68,141.34a9.07,9.07,0,0,0-4.07,1,6.48,6.48,0,0,0-3,2.87q-1.5-3.85-6-3.86a7.11,7.11,0,0,0-3.76,1,6,6,0,0,0-2.38,2.51V141.7h-3.26v20.56h3.26V149.68a5.19,5.19,0,0,1,1.61-4.05,5.53,5.53,0,0,1,3.82-1.46c2.9,0,4.36,1.71,4.36,5.11v13h3.26V149.68a5.16,5.16,0,0,1,1.62-4.05,5.49,5.49,0,0,1,3.81-1.46c2.91,0,4.36,1.71,4.36,5.11v13h3.27V149.52c0-2.8-.66-4.87-2-6.19A6.7,6.7,0,0,0,227.68,141.34Z"/><path class="cls-1" d="M250.84,141.34a8,8,0,0,0-4.08,1.12,7.82,7.82,0,0,0-2.87,2.7V141.7h-3.27v27.71h3.27V158.88a7.19,7.19,0,0,0,2.75,2.69,8.28,8.28,0,0,0,4.2,1,8.56,8.56,0,0,0,6.78-2.93A11.18,11.18,0,0,0,260.2,152v-.32a10.61,10.61,0,0,0-2.62-7.53A8.8,8.8,0,0,0,250.84,141.34Zm6,10.81a9,9,0,0,1-1.61,5.74,5.66,5.66,0,0,1-4.68,2,6.43,6.43,0,0,1-4.94-2c-1.22-1.31-1.82-3.23-1.82-5.78v-.31a8.18,8.18,0,0,1,1.86-5.8,6.39,6.39,0,0,1,4.86-2,5.79,5.79,0,0,1,4.54,2,8.44,8.44,0,0,1,1.79,5.76Z"/><rect class="cls-1" x="264.96" y="131.87" width="3.3" height="30.39"/><path class="cls-1" d="M276.2,133.09a2.11,2.11,0,0,0-1.52.63,2.15,2.15,0,0,0,0,3.06,2.14,2.14,0,0,0,3,0,2.13,2.13,0,0,0,0-3.06A2.1,2.1,0,0,0,276.2,133.09Z"/><rect class="cls-1" x="274.63" y="141.7" width="3.26" height="20.56"/><path class="cls-1" d="M286.42,133.46a7.09,7.09,0,0,0-1.53,4.89v3.35h-3v2.75h3v17.81h3.26V144.45h5V141.7h-5V138c0-2.36,1-3.54,2.9-3.54a5.72,5.72,0,0,1,2.13.36v-2.75a6.45,6.45,0,0,0-2.24-.32A5.74,5.74,0,0,0,286.42,133.46Z"/><path class="cls-1" d="M298.45,133.09a2.11,2.11,0,0,0-1.52.63,2.15,2.15,0,0,0,0,3.06,2.14,2.14,0,0,0,3,0,2.13,2.13,0,0,0,0-3.06A2.1,2.1,0,0,0,298.45,133.09Z"/><rect class="cls-1" x="296.88" y="141.7" width="3.26" height="20.56"/><path class="cls-1" d="M314.53,141.34a9,9,0,0,0-6.94,2.95,10.81,10.81,0,0,0-2.69,7.59v.31a10.41,10.41,0,0,0,2.76,7.57,9.57,9.57,0,0,0,7.18,2.85,10.08,10.08,0,0,0,5.89-1.63,6.8,6.8,0,0,0,2.88-4.66h-3.27q-.63,3.59-5.46,3.58a6.12,6.12,0,0,1-4.82-1.87,8.29,8.29,0,0,1-1.79-5.4h15.49v-1.06q0-5.16-2.65-7.69A9.16,9.16,0,0,0,314.53,141.34ZM308.39,150a7.59,7.59,0,0,1,2-4.34,5.6,5.6,0,0,1,4.1-1.59q5.46,0,5.89,5.93Z"/><path class="cls-1" d="M343.14,131.87V145a7.25,7.25,0,0,0-6.72-3.66,8.85,8.85,0,0,0-6.92,3,11.21,11.21,0,0,0-2.67,7.73v.31a10.52,10.52,0,0,0,2.57,7.47,8.78,8.78,0,0,0,6.71,2.75,7.94,7.94,0,0,0,4.12-1.16,8,8,0,0,0,2.91-2.73v3.54h3.27V131.87Zm.12,20.25a8.07,8.07,0,0,1-1.89,5.79,6.46,6.46,0,0,1-4.91,2,5.75,5.75,0,0,1-4.5-2,8.29,8.29,0,0,1-1.76-5.7v-.31a8.75,8.75,0,0,1,1.74-5.8,5.89,5.89,0,0,1,4.79-2.06,6.1,6.1,0,0,1,4.82,1.94q1.71,2,1.71,5.8Z"/></svg>